<!DOCTYPE svg PUBLIC "-//W3C//DTD SVG 20010904//EN" "http://www.w3.org/TR/2001/REC-SVG-20010904/DTD/svg10.dtd">
<svg version="1.0" xmlns="http://www.w3.org/2000/svg" width="957px" height="366px" viewBox="0 0 9570 3660" preserveAspectRatio="xMidYMid meet">
<g id="layer1" fill="#ff6f00" stroke="none">
 <path d="M8599 1294 c-153 -86 -550 -264 -714 -320 -299 -104 -929 -255 -1261 -304 -72 -11 -279 -36 -460 -56 l-329 -37 -680 -4 c-374 -2 -691 -6 -705 -9 -40 -9 -10 -19 160 -52 428 -85 1043 -132 1742 -132 522 0 695 11 1093 71 315 47 341 52 625 119 274 65 448 117 630 187 159 61 401 176 421 199 14 17 35 -5 -227 242 -95 89 -173 162 -175 162 -2 0 -56 -30 -120 -66z m309 -140 c103 -96 188 -178 189 -182 6 -17 -173 -105 -377 -185 -323 -126 -774 -239 -1245 -311 -423 -64 -601 -76 -1124 -76 -663 0 -1289 46 -1691 123 l-115 22 665 6 c366 4 674 9 685 12 11 4 133 18 270 32 334 34 558 67 794 116 299 62 717 171 911 237 195 67 557 227 725 320 61 34 114 62 118 62 5 0 93 -79 195 -176z"/>
 </g>
<g id="layer2" fill="#80e0fd" stroke="none">
 <path d="M1037 1089 c-120 -110 -217 -204 -217 -208 0 -11 187 -85 320 -127 284 -88 463 -124 800 -161 202 -22 854 -25 1165 -6 478 30 1192 150 1515 255 124 40 134 51 40 44 -313 -23 -557 -28 -980 -23 -798 10 -1173 47 -1647 162 -306 75 -763 227 -763 255 0 6 -4 10 -8 10 -5 0 -106 -90 -225 -201z"/>
 </g>
<g id="layer3" fill="#0080ff" stroke="none">
 <path d="M6355 3160 c-552 -37 -1167 -139 -1545 -257 -63 -20 -110 -38 -103 -40 7 -3 99 1 205 7 301 18 893 24 1178 11 637 -29 931 -65 1320 -161 320 -79 738 -219 762 -253 8 -12 24 1 266 227 100 93 179 173 175 177 -29 28 -373 144 -593 199 -381 96 -1045 132 -1665 90z"/>
 </g>
<g id="layer4" fill="#ff0100" stroke="none">
 <path d="M8595 1268 c-168 -93 -530 -253 -725 -320 -194 -66 -612 -175 -911 -237 -236 -49 -460 -82 -794 -116 -137 -14 -259 -28 -270 -32 -11 -3 -319 -8 -685 -12 l-665 -6 115 -22 c402 -77 1028 -123 1691 -123 523 0 701 12 1124 76 471 72 922 185 1245 311 204 80 383 168 377 185 -4 12 -375 358 -384 358 -4 0 -57 -28 -118 -62z"/>
 </g>
<g id="layer5" fill="#01ff01" stroke="none">
 <path d="M8345 1856 l-129 -92 -42 -104 c-23 -58 -58 -149 -79 -202 l-37 -98 -107 0 -106 0 -28 75 c-16 41 -33 75 -38 75 -5 0 -55 -23 -112 -51 -521 -262 -1185 -490 -1737 -598 -296 -57 -713 -116 -1108 -155 -357 -36 -433 -47 -429 -60 6 -18 131 -25 619 -32 498 -7 714 1 1023 36 754 88 1384 228 1920 428 148 55 389 162 500 222 l110 60 -87 0 -88 0 0 90 0 90 145 0 146 0 -3 137 -3 137 -98 68 c-54 38 -99 68 -100 67 -1 0 -60 -42 -132 -93z"/>
 <path d="M8880 1610 l0 -61 28 20 c52 37 56 47 25 68 -54 38 -53 39 -53 -27z"/>
 </g>
<g id="layer6" fill="#03a600" stroke="none">
 <path d="M3760 3130 c-417 -27 -1068 -124 -1454 -215 -665 -159 -1127 -338 -1626 -633 -91 -53 -199 -133 -200 -147 0 -6 55 -49 122 -95 l123 -85 83 -3 82 -4 0 -49 c0 -40 5 -53 27 -74 15 -14 32 -25 38 -25 5 0 46 27 90 58 l80 58 3 237 2 237 350 0 350 0 0 -36 c0 -25 4 -34 13 -31 6 3 76 35 155 71 488 225 1074 412 1588 506 220 41 664 103 929 130 314 32 515 57 522 64 13 13 -11 20 -100 28 -137 12 -1021 18 -1177 8z"/>
 <path d="M1330 2136 l0 -84 140 77 c77 42 140 79 140 84 0 4 -63 7 -140 7 l-140 0 0 -84z"/>
 </g>
<g id="layer7" fill="#ffff00" stroke="none">
 <path d="M2620 3364 c-395 -25 -841 -91 -1220 -180 -351 -83 -499 -128 -736 -223 -173 -70 -368 -167 -361 -181 2 -6 333 -319 389 -369 l27 -23 118 66 c65 36 192 99 283 140 91 40 194 87 230 103 128 58 430 152 710 222 497 123 724 162 1240 217 368 39 473 43 1112 43 323 1 589 5 592 10 6 10 -253 65 -404 86 -461 63 -839 86 -1435 90 -269 1 -515 1 -545 -1z"/>
 </g>
<g id="layer8" fill="#fcfafc" stroke="none">
 <path d="M2266 2399 c-147 -35 -269 -154 -319 -313 -29 -95 -31 -309 -3 -401 76 -250 281 -376 547 -336 252 39 399 236 399 533 -1 266 -126 458 -335 512 -65 17 -225 20 -289 5z m244 -195 c50 -21 105 -79 131 -138 31 -68 39 -256 15 -338 -42 -145 -171 -223 -314 -188 -75 18 -126 60 -163 136 -29 59 -33 77 -37 173 -5 120 11 197 53 263 67 102 198 140 315 92z"/>
 <path d="M3318 2391 c-155 -50 -261 -165 -305 -334 -22 -83 -22 -270 0 -355 64 -245 264 -384 516 -357 220 23 375 161 420 373 16 77 14 267 -4 337 -45 173 -149 287 -306 336 -82 25 -241 25 -321 0z m272 -191 c113 -57 171 -195 156 -367 -13 -143 -59 -228 -150 -276 -58 -31 -174 -31 -232 0 -55 29 -109 94 -131 157 -27 77 -24 262 5 337 59 149 219 217 352 149z"/>
 <path d="M5768 2391 c-154 -50 -256 -167 -299 -341 -19 -78 -17 -269 4 -350 56 -212 192 -333 398 -355 139 -14 281 35 363 126 43 48 92 150 83 173 -4 9 -173 57 -199 56 -3 0 -9 -14 -13 -31 -16 -72 -110 -138 -196 -139 -57 0 -140 40 -174 84 -48 63 -59 110 -59 261 0 167 18 229 85 290 51 45 76 55 147 55 98 0 160 -51 200 -162 9 -26 21 -48 27 -48 5 0 51 14 101 30 105 35 102 28 53 137 -38 85 -113 163 -192 199 -83 37 -240 45 -329 15z"/>
 <path d="M6768 2391 c-155 -50 -261 -165 -305 -334 -22 -84 -22 -270 1 -357 65 -253 277 -390 542 -351 200 29 338 156 389 356 20 79 20 272 0 350 -45 173 -149 287 -306 336 -82 25 -241 25 -321 0z m285 -199 c97 -53 141 -151 141 -317 0 -123 -20 -195 -70 -253 -55 -65 -104 -87 -194 -87 -90 0 -139 22 -194 86 -55 64 -71 124 -70 259 0 95 4 125 22 171 62 155 224 218 365 141z"/>
 <path d="M280 1875 l0 -515 340 0 340 0 0 90 0 90 -235 0 -235 0 0 120 0 120 206 0 205 0 -7 83 c-3 45 -7 83 -8 84 -1 1 -91 6 -199 9 l-197 7 -1 81 c-1 45 0 141 1 214 l2 132 -106 0 -106 0 0 -515z"/>
 <path d="M1127 2038 c-4 -194 -7 -424 -7 -510 l0 -158 105 0 105 0 0 426 0 427 250 -7 250 -8 0 91 0 91 -348 0 -349 0 -6 -352z"/>
 <path d="M4110 1874 l0 -516 303 4 c350 5 366 8 441 88 57 61 81 135 73 227 -9 122 -73 208 -182 245 -27 9 -48 20 -46 25 2 4 21 23 42 42 52 44 90 100 266 394 2 4 -53 7 -124 7 l-128 -1 -90 -141 c-162 -256 -184 -278 -287 -278 l-58 0 0 210 0 210 -105 0 -105 0 0 -516z m535 -98 c79 -33 89 -164 16 -213 -22 -15 -53 -19 -183 -21 l-158 -4 0 126 0 126 145 0 c103 0 156 -4 180 -14z"/>
 <path d="M7463 2373 c7 -27 311 -835 349 -930 l33 -83 106 0 107 0 37 98 c21 53 60 151 87 217 37 91 176 444 275 703 4 9 -22 12 -110 12 l-115 0 -42 -115 -42 -115 -193 0 -192 0 -40 113 -40 112 -113 3 c-104 2 -112 1 -107 -15z m617 -395 c-2 -23 -129 -348 -133 -341 -8 13 -117 325 -117 335 0 4 56 8 125 8 69 0 125 -1 125 -2z"/>
 <path d="M8680 1965 l0 -425 -145 0 -145 0 0 -90 0 -90 395 0 395 0 0 90 0 89 -147 3 -148 3 4 423 3 422 -106 0 -106 0 0 -425z"/>
 </g>

</svg>